<svg xmlns="http://www.w3.org/2000/svg" width="1200" height="700" viewBox="0 0 1200 700">
<rect x="0" y="0" width="100%" height="100%" fill="white"/>
<text x="80" y="28" font-family="system-ui, -apple-system, Segoe UI, Roboto, Arial" font-size="18" fill="#0f172a">SKAR temperatur 06–12 lokal tid (Bogotá) — varje dag en linje</text>
<text x="80" y="50" font-family="system-ui, -apple-system, Segoe UI, Roboto, Arial" font-size="12" fill="#475569">Färger: grön=flygbar, röd=ej flygbar (saknas tills vi får listan). Källa: aviationweather.gov METAR</text>
<rect x="80" y="40" width="1080" height="580" fill="none" stroke="#cbd5e1"/>
<line x1="80.0" y1="620" x2="80.0" y2="626" stroke="#94a3b8"/>
<text x="80.0" y="644" text-anchor="middle" font-size="12" font-family="system-ui, -apple-system, Segoe UI, Roboto, Arial" fill="#334155">06</text>
<line x1="260.0" y1="620" x2="260.0" y2="626" stroke="#94a3b8"/>
<text x="260.0" y="644" text-anchor="middle" font-size="12" font-family="system-ui, -apple-system, Segoe UI, Roboto, Arial" fill="#334155">07</text>
<line x1="440.0" y1="620" x2="440.0" y2="626" stroke="#94a3b8"/>
<text x="440.0" y="644" text-anchor="middle" font-size="12" font-family="system-ui, -apple-system, Segoe UI, Roboto, Arial" fill="#334155">08</text>
<line x1="620.0" y1="620" x2="620.0" y2="626" stroke="#94a3b8"/>
<text x="620.0" y="644" text-anchor="middle" font-size="12" font-family="system-ui, -apple-system, Segoe UI, Roboto, Arial" fill="#334155">09</text>
<line x1="800.0" y1="620" x2="800.0" y2="626" stroke="#94a3b8"/>
<text x="800.0" y="644" text-anchor="middle" font-size="12" font-family="system-ui, -apple-system, Segoe UI, Roboto, Arial" fill="#334155">10</text>
<line x1="980.0" y1="620" x2="980.0" y2="626" stroke="#94a3b8"/>
<text x="980.0" y="644" text-anchor="middle" font-size="12" font-family="system-ui, -apple-system, Segoe UI, Roboto, Arial" fill="#334155">11</text>
<line x1="1160.0" y1="620" x2="1160.0" y2="626" stroke="#94a3b8"/>
<text x="1160.0" y="644" text-anchor="middle" font-size="12" font-family="system-ui, -apple-system, Segoe UI, Roboto, Arial" fill="#334155">12</text>
<text x="620.0" y="680" text-anchor="middle" font-size="12" font-family="system-ui, -apple-system, Segoe UI, Roboto, Arial" fill="#334155">Klockslag (lokal tid)</text>
<line x1="74" y1="620.0" x2="80" y2="620.0" stroke="#94a3b8"/>
<text x="70" y="624.0" text-anchor="end" font-size="12" font-family="system-ui, -apple-system, Segoe UI, Roboto, Arial" fill="#334155">16</text>
<line x1="80" y1="620.0" x2="1160" y2="620.0" stroke="#e2e8f0"/>
<line x1="74" y1="567.2727272727273" x2="80" y2="567.2727272727273" stroke="#94a3b8"/>
<text x="70" y="571.2727272727273" text-anchor="end" font-size="12" font-family="system-ui, -apple-system, Segoe UI, Roboto, Arial" fill="#334155">17</text>
<line x1="80" y1="567.2727272727273" x2="1160" y2="567.2727272727273" stroke="#e2e8f0"/>
<line x1="74" y1="514.5454545454545" x2="80" y2="514.5454545454545" stroke="#94a3b8"/>
<text x="70" y="518.5454545454545" text-anchor="end" font-size="12" font-family="system-ui, -apple-system, Segoe UI, Roboto, Arial" fill="#334155">18</text>
<line x1="80" y1="514.5454545454545" x2="1160" y2="514.5454545454545" stroke="#e2e8f0"/>
<line x1="74" y1="461.8181818181818" x2="80" y2="461.8181818181818" stroke="#94a3b8"/>
<text x="70" y="465.8181818181818" text-anchor="end" font-size="12" font-family="system-ui, -apple-system, Segoe UI, Roboto, Arial" fill="#334155">19</text>
<line x1="80" y1="461.8181818181818" x2="1160" y2="461.8181818181818" stroke="#e2e8f0"/>
<line x1="74" y1="409.09090909090907" x2="80" y2="409.09090909090907" stroke="#94a3b8"/>
<text x="70" y="413.09090909090907" text-anchor="end" font-size="12" font-family="system-ui, -apple-system, Segoe UI, Roboto, Arial" fill="#334155">20</text>
<line x1="80" y1="409.09090909090907" x2="1160" y2="409.09090909090907" stroke="#e2e8f0"/>
<line x1="74" y1="356.3636363636363" x2="80" y2="356.3636363636363" stroke="#94a3b8"/>
<text x="70" y="360.3636363636363" text-anchor="end" font-size="12" font-family="system-ui, -apple-system, Segoe UI, Roboto, Arial" fill="#334155">21</text>
<line x1="80" y1="356.3636363636363" x2="1160" y2="356.3636363636363" stroke="#e2e8f0"/>
<line x1="74" y1="303.6363636363636" x2="80" y2="303.6363636363636" stroke="#94a3b8"/>
<text x="70" y="307.6363636363636" text-anchor="end" font-size="12" font-family="system-ui, -apple-system, Segoe UI, Roboto, Arial" fill="#334155">22</text>
<line x1="80" y1="303.6363636363636" x2="1160" y2="303.6363636363636" stroke="#e2e8f0"/>
<line x1="74" y1="250.9090909090909" x2="80" y2="250.9090909090909" stroke="#94a3b8"/>
<text x="70" y="254.9090909090909" text-anchor="end" font-size="12" font-family="system-ui, -apple-system, Segoe UI, Roboto, Arial" fill="#334155">23</text>
<line x1="80" y1="250.9090909090909" x2="1160" y2="250.9090909090909" stroke="#e2e8f0"/>
<line x1="74" y1="198.18181818181816" x2="80" y2="198.18181818181816" stroke="#94a3b8"/>
<text x="70" y="202.18181818181816" text-anchor="end" font-size="12" font-family="system-ui, -apple-system, Segoe UI, Roboto, Arial" fill="#334155">24</text>
<line x1="80" y1="198.18181818181816" x2="1160" y2="198.18181818181816" stroke="#e2e8f0"/>
<line x1="74" y1="145.45454545454544" x2="80" y2="145.45454545454544" stroke="#94a3b8"/>
<text x="70" y="149.45454545454544" text-anchor="end" font-size="12" font-family="system-ui, -apple-system, Segoe UI, Roboto, Arial" fill="#334155">25</text>
<line x1="80" y1="145.45454545454544" x2="1160" y2="145.45454545454544" stroke="#e2e8f0"/>
<line x1="74" y1="92.72727272727272" x2="80" y2="92.72727272727272" stroke="#94a3b8"/>
<text x="70" y="96.72727272727272" text-anchor="end" font-size="12" font-family="system-ui, -apple-system, Segoe UI, Roboto, Arial" fill="#334155">26</text>
<line x1="80" y1="92.72727272727272" x2="1160" y2="92.72727272727272" stroke="#e2e8f0"/>
<line x1="74" y1="40.0" x2="80" y2="40.0" stroke="#94a3b8"/>
<text x="70" y="44.0" text-anchor="end" font-size="12" font-family="system-ui, -apple-system, Segoe UI, Roboto, Arial" fill="#334155">27</text>
<line x1="80" y1="40.0" x2="1160" y2="40.0" stroke="#e2e8f0"/>
<text x="22" y="330.0" transform="rotate(-90 22 330.0)" text-anchor="middle" font-size="12" font-family="system-ui, -apple-system, Segoe UI, Roboto, Arial" fill="#334155">Temperatur (°C)</text>
<text x="1170" y="50" font-size="12" font-family="system-ui, -apple-system, Segoe UI, Roboto, Arial" fill="#0f172a">Dagar</text>
<path d="M 80.0 409.1 L 260.0 409.1 L 440.0 409.1 L 620.0 409.1 L 800.0 356.4 L 980.0 356.4 L 1160.0 250.9" fill="none" stroke="#16a34a" stroke-width="2.5" stroke-linejoin="round" stroke-linecap="round" opacity="0.9"/>
<line x1="1170" y1="64" x2="1188" y2="64" stroke="#16a34a" stroke-width="3"/>
<text x="1194" y="68" font-size="12" font-family="system-ui, -apple-system, Segoe UI, Roboto, Arial" fill="#334155">2026-01-31</text>
<path d="M 80.0 461.8 L 260.0 461.8 L 440.0 409.1 L 620.0 409.1 L 800.0 356.4 L 980.0 356.4 L 1160.0 303.6" fill="none" stroke="#16a34a" stroke-width="2.5" stroke-linejoin="round" stroke-linecap="round" opacity="0.9"/>
<line x1="1170" y1="80" x2="1188" y2="80" stroke="#16a34a" stroke-width="3"/>
<text x="1194" y="84" font-size="12" font-family="system-ui, -apple-system, Segoe UI, Roboto, Arial" fill="#334155">2026-02-01</text>
<path d="M 80.0 514.5 L 101.0 514.5 L 200.0 514.5 L 260.0 514.5 L 440.0 514.5 L 620.0 461.8 L 800.0 409.1 L 980.0 356.4 L 1160.0 303.6" fill="none" stroke="#dc2626" stroke-width="2.5" stroke-linejoin="round" stroke-linecap="round" opacity="0.9"/>
<line x1="1170" y1="96" x2="1188" y2="96" stroke="#dc2626" stroke-width="3"/>
<text x="1194" y="100" font-size="12" font-family="system-ui, -apple-system, Segoe UI, Roboto, Arial" fill="#334155">2026-02-02</text>
<path d="M 80.0 461.8 L 260.0 461.8 L 440.0 409.1 L 620.0 409.1 L 800.0 303.6 L 980.0 250.9 L 1160.0 198.2" fill="none" stroke="#16a34a" stroke-width="2.5" stroke-linejoin="round" stroke-linecap="round" opacity="0.9"/>
<line x1="1170" y1="112" x2="1188" y2="112" stroke="#16a34a" stroke-width="3"/>
<text x="1194" y="116" font-size="12" font-family="system-ui, -apple-system, Segoe UI, Roboto, Arial" fill="#334155">2026-02-03</text>
<path d="M 80.0 514.5 L 260.0 514.5 L 440.0 461.8 L 620.0 356.4 L 800.0 250.9 L 980.0 198.2 L 1160.0 92.7" fill="none" stroke="#16a34a" stroke-width="2.5" stroke-linejoin="round" stroke-linecap="round" opacity="0.9"/>
<line x1="1170" y1="128" x2="1188" y2="128" stroke="#16a34a" stroke-width="3"/>
<text x="1194" y="132" font-size="12" font-family="system-ui, -apple-system, Segoe UI, Roboto, Arial" fill="#334155">2026-02-04</text>
<path d="M 80.0 567.3 L 260.0 567.3 L 440.0 514.5 L 620.0 303.6 L 800.0 198.2 L 980.0 145.5 L 1160.0 92.7" fill="none" stroke="#16a34a" stroke-width="2.5" stroke-linejoin="round" stroke-linecap="round" opacity="0.9"/>
<line x1="1170" y1="144" x2="1188" y2="144" stroke="#16a34a" stroke-width="3"/>
<text x="1194" y="148" font-size="12" font-family="system-ui, -apple-system, Segoe UI, Roboto, Arial" fill="#334155">2026-02-05</text>
<path d="M 80.0 461.8 L 152.0 514.5 L 260.0 514.5 L 440.0 461.8 L 494.0 461.8 L 620.0 461.8 L 800.0 461.8 L 980.0 409.1 L 1052.0 303.6 L 1160.0 303.6" fill="none" stroke="#dc2626" stroke-width="2.5" stroke-linejoin="round" stroke-linecap="round" opacity="0.9"/>
<line x1="1170" y1="160" x2="1188" y2="160" stroke="#dc2626" stroke-width="3"/>
<text x="1194" y="164" font-size="12" font-family="system-ui, -apple-system, Segoe UI, Roboto, Arial" fill="#334155">2026-02-06</text>
<path d="M 80.0 514.5 L 260.0 514.5" fill="none" stroke="#334155" stroke-width="2.5" stroke-linejoin="round" stroke-linecap="round" opacity="0.9"/>
<line x1="1170" y1="176" x2="1188" y2="176" stroke="#334155" stroke-width="3"/>
<text x="1194" y="180" font-size="12" font-family="system-ui, -apple-system, Segoe UI, Roboto, Arial" fill="#334155">2026-02-07</text>
</svg>